<?xml version="1.0" encoding="UTF-8" standalone="no"?>
<svg
   xmlns:dc="http://purl.org/dc/elements/1.1/"
   xmlns:cc="http://creativecommons.org/ns#"
   xmlns:rdf="http://www.w3.org/1999/02/22-rdf-syntax-ns#"
   xmlns:svg="http://www.w3.org/2000/svg"
   xmlns="http://www.w3.org/2000/svg"
   xmlns:sodipodi="http://sodipodi.sourceforge.net/DTD/sodipodi-0.dtd"
   xmlns:inkscape="http://www.inkscape.org/namespaces/inkscape"
   inkscape:version="1.0 (4035a4fb49, 2020-05-01)"
   sodipodi:docname="Paths.svg"
   id="svg49"
   version="1.1"
   overflow="hidden"
   xml:space="preserve"
   height="583"
   width="3187"><metadata
     id="metadata53"><rdf:RDF><cc:Work
         rdf:about=""><dc:format>image/svg+xml</dc:format><dc:type
           rdf:resource="http://purl.org/dc/dcmitype/StillImage" /></cc:Work></rdf:RDF></metadata><sodipodi:namedview
     inkscape:current-layer="svg49"
     inkscape:window-maximized="1"
     inkscape:window-y="-9"
     inkscape:window-x="-9"
     inkscape:cy="161.8603"
     inkscape:cx="2342.4544"
     inkscape:zoom="0.8151867"
     showgrid="false"
     id="namedview51"
     inkscape:window-height="1001"
     inkscape:window-width="1920"
     inkscape:pageshadow="2"
     inkscape:pageopacity="0"
     guidetolerance="10"
     gridtolerance="10"
     objecttolerance="10"
     borderopacity="1"
     bordercolor="#666666"
     pagecolor="#ffffff" /><defs
     id="defs5"><clipPath
       id="clip0"><rect
         id="rect2"
         height="583"
         width="3187"
         y="913"
         x="441" /></clipPath></defs><g
     id="g47"
     transform="translate(-441 -913)"
     clip-path="url(#clip0)"><rect
       id="rect7"
       fill="#FFFFFF"
       height="565"
       width="3181"
       y="913"
       x="441" /><text
       y="983"
       x="2546.55"
       id="text23"
       font-size="55px"
       font-weight="400"
       font-family="Arial, Arial_MSFontService, sans-serif">slide<tspan
   id="tspan9"
   y="1049"
   x="2537.3833"
   font-size="55px">index</tspan><tspan
   id="tspan11"
   y="983"
   x="3424.8721"
   font-size="55px">shape</tspan><tspan
   id="tspan13"
   y="1049"
   x="3434.0391"
   font-size="55px">index</tspan><tspan
   id="tspan15"
   y="983"
   x="2832.5601"
   font-size="55px">group</tspan><tspan
   id="tspan17"
   y="1049"
   x="2837.1431"
   font-size="55px">index</tspan><tspan
   id="tspan19"
   y="983"
   x="3076.845"
   font-size="55px">subgroup </tspan><tspan
   id="tspan21"
   y="1049"
   x="3133.2881"
   font-size="55px">index</tspan></text><path
       id="path25"
       fill="#4472c4"
       d="m 2601.8542,1080 -3e-4,67.511 2.2917,10e-5 2e-4,-67.5111 z m -12.6045,62.9277 13.7499,27.5 13.7501,-27.4999 z" /><path
       id="path27"
       fill="#4472c4"
       d="m 2900.8542,1080 -3e-4,67.511 2.2917,10e-5 2e-4,-67.5111 z m -12.6045,62.9277 13.7499,27.5 13.7501,-27.4999 z" /><path
       id="path29"
       fill="#4472c4"
       d="m 3197.8542,1080 -3e-4,67.5114 h 2.2917 l 2e-4,-67.5114 z m -12.6045,62.928 13.7499,27.5001 13.7501,-27.5 z" /><path
       id="path31"
       fill="#4472c4"
       d="m 3497.8542,1080 -3e-4,67.5118 h 2.2917 l 2e-4,-67.5118 z m -12.6045,62.9284 13.7499,27.5 13.7501,-27.4999 z" /><text
       id="text45"
       transform="matrix(1 0 0 1 2233 1378)"
       font-size="55"
       font-weight="400"
       font-family="Arial,Arial_MSFontService,sans-serif">The path to a group:<tspan
   id="tspan33"
   y="0"
   x="660"
   font-size="55"
   font-weight="700"
   font-family="Courier New,Courier New_MSFontService,sans-serif"
   fill="#70AD47">1/shapes</tspan><tspan
   id="tspan35"
   y="66"
   x="0"
   font-size="55">The path to a subgroup:</tspan><tspan
   id="tspan37"
   y="66"
   x="660"
   font-size="55"
   font-weight="700"
   font-family="Courier New,Courier New_MSFontService,sans-serif"
   fill="#70AD47">1/shapes/2/shapes</tspan><tspan
   id="tspan39"
   y="-327"
   x="1108.35"
   font-size="55">…</tspan><tspan
   id="tspan41"
   y="-207"
   x="-1758.96"
   font-size="55">Resource reference to the new shape:</tspan><tspan
   id="tspan43"
   y="-143"
   x="-1758.96"
   font-size="55"
   font-weight="700"
   font-family="Courier New,Courier New_MSFontService,sans-serif">https://api.aspose.cloud/v3.0/slides/MyPresentation.pptx/slides/1/shapes/1/shapes/2/shapes/3</tspan></text></g></svg>
